<svg xmlns="http://www.w3.org/2000/svg" xmlns:xlink="http://www.w3.org/1999/xlink" version="1.1" x="0px" y="0px" width="50.4px" height="50.4px" viewBox="2.52 -5.04 50.4 68.04" enable-background="new 0 0 50.4 50.4" xml:space="preserve">
<g id="Layer_1" fill="#FFFFFF">
	<path d="M24.483,38.01c0.079,0.381,0.074,0.778-0.038,1.161c-0.095,0.356-0.288,0.689-0.55,0.969   c-0.894,0.899-2.351,0.924-3.26,0.045l-4.97-4.871l-0.873,1.358l4.974,4.87c1.233,1.196,3.912,1.122,5.125-0.109   c0.419-0.429,1.013-1.402,1.138-1.965l11.114,0.01c1.281,0,2.649,1.294,2.649,2.57c0,1.291-0.687,2.975-2.705,2.975H18.805   c-1.498,0-2.811-1.17-3.53-1.779l-9.462-7.718L0.01,35.552L0,26.674h0.048v-0.075h11.577c0,0,1.213,0.028,2.046,0.511   c0.769,0.45,1.455,1.106,1.455,1.106l8.714,8.681C24.157,37.198,24.376,37.579,24.483,38.01z"/>
	<g>
		<rect x="39.233" y="14.985" width="11.2" height="10.063"/>
		<rect x="26.2" y="14.985" width="11.204" height="10.063"/>
		<rect x="26.2" y="26.877" width="11.204" height="10.573"/>
		<rect x="39.233" y="26.877" width="11.2" height="10.573"/>
	</g>
	<path d="M46.154,7.957c-0.308-0.405-0.881-0.483-1.282-0.176l-4.675,3.551l1.552-4.21c0.179-0.474-0.064-1.001-0.539-1.175   c-0.474-0.171-1,0.067-1.174,0.542l-1.798,4.87l-1.984-4.897c-0.19-0.469-0.724-0.69-1.19-0.504   c-0.469,0.19-0.697,0.724-0.505,1.191l1.596,3.939l-4.019-3.051c-0.4-0.307-0.974-0.229-1.281,0.176   c-0.305,0.403-0.228,0.977,0.177,1.281l6.646,5.047c0.165,0.153,0.364,0.267,0.601,0.267c0.005,0,0.01,0,0.014,0   c0.01,0,0.015-0.006,0.023-0.006s0.015,0.006,0.021,0.006c0.196,0,0.391-0.062,0.553-0.186l7.089-5.382   C46.382,8.933,46.46,8.359,46.154,7.957z"/>
</g>
</svg>