<svg xmlns="http://www.w3.org/2000/svg" xmlns:xlink="http://www.w3.org/1999/xlink" version="1.1" id="Layer_1" x="0px" y="0px" width="100px" height="92.623px" viewBox="5.0 -9.2623 100.0 125.04105" enable-background="new 0 0 100 92.623" xml:space="preserve">
<polygon fill="#FFFFFF" points="13.33,27.016 9.061,17.623 52.514,0 36.385,7.804 36.385,17.244 30.835,13.709 13.757,20.754 "/>
<polygon fill="#FFFFFF" points="38.662,10.935 38.662,18.904 51.755,27.016 51.755,18.05 "/>
<polygon fill="#FFFFFF" points="39.979,8.906 53.036,16.342 70.256,8.23 55.598,2.11 "/>
<polygon fill="#FFFFFF" points="54.459,17.907 54.459,26.162 71.252,17.054 71.252,9.796 "/>
<polygon fill="#FFFFFF" points="74.383,7.661 74.383,14.35 91.604,24.738 91.604,28.724 100,20.47 "/>
<polygon fill="#FFFFFF" points="30.835,16.342 50.189,28.724 33.823,35.555 15.465,22.319 "/>
<polygon fill="#FFFFFF" points="15.465,25.308 31.973,37.12 31.973,43.098 15.465,28.724 "/>
<polygon fill="#FFFFFF" points="34.108,37.689 51.755,30.146 51.755,36.693 34.108,44.236 "/>
<polygon fill="#FFFFFF" points="55.117,30.146 55.117,37.191 68.548,43.098 68.548,35.555 "/>
<polygon fill="#FFFFFF" points="55.117,27.918 69.378,33.942 87.357,25.451 74.549,17.979 "/>
<polygon fill="#FFFFFF" points="70.256,35.555 88.33,26.162 88.33,35.555 70.256,43.098 "/>
<polygon fill="#FFFFFF" points="53.463,38.259 65.702,44.236 44.07,53.06 35.247,45.659 "/>
<polygon fill="#FFFFFF" points="11.907,29.436 39.979,53.06 24.004,59.203 0,39.351 "/>
<polygon fill="#FFFFFF" points="47.628,53.771 91.271,37.191 94.592,52.585 56.594,68.999 "/>
<polygon fill="#FFFFFF" points="47.628,62.024 54.221,72.623 89.469,58.04 89.469,74.406 47.628,92.623 "/>
<polygon fill="#FFFFFF" points="43.928,55.337 43.928,92.054 15.465,71.987 15.465,56.001 23.326,62.297 "/>
</svg>