<svg xmlns="http://www.w3.org/2000/svg" xmlns:xlink="http://www.w3.org/1999/xlink" version="1.1" id="Layer_1" x="0px" y="0px" width="100px" height="100px" viewBox="5.0 -10.0 100.0 135.0" enable-background="new 0 0 100 100" xml:space="preserve">
<path fill="#FFFFFF" d="M31.775,45.531c-5.101-4.768-8.998-14.047-8.998-21.545c0-10.6,8.382-16.637,16.316-16.637  c7.933,0,15.893,6.602,15.893,17.213c0,7.499-4.308,16.482-9.626,21.084c1.09,4.332,7.075,5.742,19.442,9.253  c4.562,1.295,5.409,3.256,7.935,5.55h-26.53c-0.551,0-1.064,0.128-1.513,0.385c0,0-1.551,0.666-1.666,2.807v15.431H2.963  c-0.038-6.483-1.845-20.276,11.895-24.172c12.021-3.423,15.444-4.844,16.777-8.895"/>
<g fill="#FFFFFF">
	<path d="M49.015,92.568c-0.249,0-0.497-0.025-0.732-0.087l10.745-14.22l0.818-1.08l1.439,1.08l9.207,6.912h0.286l9.206-6.912   l1.439-1.08l0.82,1.08l10.743,14.22c-0.247,0.062-0.495,0.087-0.731,0.087H70.679h-0.088H49.015z"/>
	<path d="M47.55,64.329c0.435-0.249,0.931-0.374,1.465-0.374h28.166h14.777c0.62,0,1.191,0.187,1.687,0.497l-10.993,8.089   l-7.791,5.721l-4.368,3.213l-4.306-3.213L47.55,64.329z"/>
	<path d="M95.333,67.046v22.432c0,0.385-0.062,0.745-0.198,1.081l-11.428-15.1l11.612-8.724   C95.333,66.822,95.333,66.934,95.333,67.046z"/>
	<path d="M57.562,75.459l-2.122,2.803l-9.305,12.297c-0.136-0.336-0.198-0.696-0.198-1.081V78.262V67.046   c0-0.112,0-0.224,0.012-0.311L57.562,75.459z"/>
</g>
</svg>