<svg xmlns="http://www.w3.org/2000/svg" xmlns:xlink="http://www.w3.org/1999/xlink" version="1.1" id="Layer_1" x="0px" y="0px" width="80px" height="80px" viewBox="4.0 -8.0 80.0 108.0" enable-background="new 0 0 80 80" xml:space="preserve">
<g>
	<g>
		
			<rect x="22.3" y="22.2" transform="matrix(0.9143 0.4049 -0.4049 0.9143 12.3157 -11.8392)" fill="#FFFFFF" width="23.7" height="2"/>
	</g>
	<g>
		<polygon fill="#FFFFFF" points="34,63.1 11,53.7 11,22.3 34,12.9 57,23.4 57,39 55,39 55,24.6 34,15.1 13,23.7 13,52.3 34,60.9     42.9,57.7 43.5,59.6   "/>
	</g>
	<g>
		
			<rect x="11.1" y="26.5" transform="matrix(0.9255 0.3786 -0.3786 0.9255 12.1248 -6.6611)" fill="#FFFFFF" width="23.8" height="2"/>
	</g>
	<g>
		<polygon fill="#FFFFFF" points="35,62 33,62 33,31.3 55.7,23.1 56.3,24.9 35,32.7   "/>
	</g>
</g>
<g>
	<path fill="#FFFFFF" d="M56,68c-8.3,0-15-6.7-15-15s6.7-15,15-15s15,6.7,15,15S64.3,68,56,68z M56,40c-7.2,0-13,5.8-13,13   s5.8,13,13,13s13-5.8,13-13S63.2,40,56,40z"/>
</g>
<g>
	<polygon fill="#FFFFFF" points="64,54 55,54 55,45 57,45 57,52 64,52  "/>
</g>
</svg>